<?xml version="1.0" encoding="utf-8"?>
<!-- Generator: Adobe Illustrator 21.0.0, SVG Export Plug-In . SVG Version: 6.00 Build 0)  -->
<svg version="1.1" id="Layer_1" xmlns="http://www.w3.org/2000/svg" xmlns:xlink="http://www.w3.org/1999/xlink" x="0px" y="0px"
	 viewBox="0 0 640 480" style="enable-background:new 0 0 640 480;" xml:space="preserve">
<style type="text/css">
	.st0{opacity:0.3;fill:#A5A5A5;}
	.st1{opacity:0.3;}
	.st2{fill:#A5A5A5;}
	.st3{fill:#FFFFFF;}
</style>
<circle class="st0" cx="191.5" cy="164.5" r="24.5"/>
<g id="_x31_3" class="st1">
	<path class="st2" d="M193.5,198.5L193.5,198.5c-13.4,0-24.3,10.9-24.3,24.2c0,5.3,1.7,10.2,4.6,14.2l-3,9l9.4-3
		c3.8,2.5,8.4,4,13.4,4c13.4,0,24.3-10.9,24.3-24.2C217.9,209.4,206.9,198.5,193.5,198.5z M207.7,232.8c-0.6,1.7-2.9,3-4.8,3.4
		c-1.3,0.3-2.9,0.5-8.5-1.8c-7.2-2.9-11.8-10.2-12.1-10.7c-0.3-0.5-2.9-3.8-2.9-7.3c0-3.5,1.8-5.2,2.5-5.9c0.6-0.6,1.6-0.9,2.5-0.9
		c0.3,0,0.6,0,0.8,0c0.7,0,1.1,0.1,1.5,1.2c0.6,1.4,2,4.9,2.2,5.2c0.2,0.4,0.3,0.8,0.1,1.3c-0.2,0.5-0.4,0.7-0.8,1.1
		c-0.4,0.4-0.7,0.7-1.1,1.2c-0.3,0.4-0.7,0.8-0.3,1.5c0.4,0.7,1.8,3,3.9,4.9c2.7,2.4,4.9,3.2,5.7,3.5c0.6,0.2,1.3,0.2,1.7-0.3
		c0.5-0.6,1.2-1.6,1.9-2.5c0.5-0.7,1.1-0.8,1.7-0.5c0.7,0.2,4.1,1.9,4.8,2.3c0.7,0.4,1.2,0.5,1.4,0.8
		C208.3,229.7,208.3,231.1,207.7,232.8z"/>
</g>
<circle class="st0" cx="192" cy="290" r="24.5"/>
<path class="st3" d="M177.2,276.1l11.5,15.4l-11.6,12.5h2.6l10.1-10.9l8.2,10.9h8.9l-12.1-16.2l10.8-11.6h-2.6l-9.3,10.1l-7.5-10.1
	H177.2z M181,278h4.1l18,24H199L181,278z"/>
<g>
	<g id="_x36_2">
		<g>
			<path class="st3" d="M191.8,160.8c-1.9,0-3.4,1.5-3.4,3.4c0,1.9,1.5,3.4,3.4,3.4c1.9,0,3.4-1.5,3.4-3.4
				C195.1,162.3,193.6,160.8,191.8,160.8z"/>
			<path class="st3" d="M195.8,155.4h-8.1c-2.6,0-4.8,2.1-4.8,4.7v8.1c0,2.6,2.2,4.7,4.8,4.7h8.1c2.6,0,4.7-2.1,4.7-4.7v-8.1
				C200.5,157.6,198.4,155.4,195.8,155.4z M191.8,169.5c-3,0-5.4-2.4-5.4-5.4c0-3,2.4-5.4,5.4-5.4c3,0,5.4,2.4,5.4,5.4
				C197.1,167.1,194.7,169.5,191.8,169.5z M197.5,159.1c-0.4,0-0.7-0.3-0.7-0.7c0-0.4,0.3-0.7,0.7-0.7c0.4,0,0.7,0.3,0.7,0.7
				C198.3,158.8,197.9,159.1,197.5,159.1z"/>
			<path class="st3" d="M207,156.7c0-4.2-3.4-7.7-7.7-7.7h-15.4c-4.2,0-7.7,3.4-7.7,7.7v15.4c0,4.2,3.4,7.7,7.7,7.7h15.4
				c4.2,0,7.7-3.4,7.7-7.7V156.7z M202.6,168.2c0,3.7-3.1,6.8-6.8,6.8h-8.1c-3.7,0-6.7-3.1-6.7-6.8v-8.1c0-3.7,3-6.7,6.7-6.7h8.1
				c3.7,0,6.8,3,6.8,6.7V168.2z"/>
		</g>
	</g>
	<g id="Layer_1_1_">
	</g>
</g>
</svg>
