<?xml version="1.0" encoding="utf-8"?>
<!-- Generator: Adobe Illustrator 21.0.0, SVG Export Plug-In . SVG Version: 6.00 Build 0)  -->
<svg version="1.1" id="Layer_1" xmlns="http://www.w3.org/2000/svg" xmlns:xlink="http://www.w3.org/1999/xlink" x="0px" y="0px"
	 viewBox="0 0 640 480" style="enable-background:new 0 0 640 480;" xml:space="preserve">
<style type="text/css">
	.st0{fill:#FFFFFF;}
	.st1{fill:#F3F4F6;}
	.st2{fill:#F4975D;}
	.st3{fill:#F6B249;}
	.st4{fill:#6688BD;}
	.st5{fill:#9FC0E0;}
</style>
<g>
	<image style="overflow:visible;" width="556" height="192" xlink:href="C2C3DAEA.png"  transform="matrix(1 0 0 1 46 247)">
	</image>
</g>
<rect x="74.3" y="259.7" class="st0" width="517.4" height="149.2"/>
<rect x="74.3" y="259.8" class="st1" width="517.4" height="149.2"/>
<polygon points="482.6,259.8 537.1,314.3 591.6,259.8 "/>
<rect x="519.3" y="337.3" transform="matrix(0.7071 -0.7071 0.7071 0.7071 -103.5869 477.94)" class="st2" width="11.7" height="53.4"/>
<polygon class="st3" points="487.8,318.4 548.2,378.7 539.9,387 517.9,409 591.6,409 591.6,386.1 477.5,272 441.4,272 "/>
<polygon class="st2" points="74.3,259.8 74.3,272 477.5,272 591.6,386.1 591.6,376.3 591.4,376.1 591.6,259.8 537.1,314.3 
	482.6,259.8 "/>

</svg>
