<?xml version="1.0" encoding="utf-8"?>
<!-- Generator: Adobe Illustrator 21.0.0, SVG Export Plug-In . SVG Version: 6.00 Build 0)  -->
<svg version="1.1" id="Layer_1" xmlns="http://www.w3.org/2000/svg" xmlns:xlink="http://www.w3.org/1999/xlink" x="0px" y="0px"
	 viewBox="0 0 640 480" style="enable-background:new 0 0 640 480;" xml:space="preserve">
<style type="text/css">
	.st0{fill:#FFFFFF;}
	.st1{fill:#F3F4F6;}
	.st2{fill:#F4975D;}
	.st3{fill:#F6B249;}
	.st4{fill:#6688BD;}
	.st5{fill:#9FC0E0;}
</style>

<g>
	<image style="overflow:visible;" width="551" height="191" xlink:href="C2C3DAEE.png"  transform="matrix(1 0 0 1 49 61)">
	</image>
</g>
<rect x="76.4" y="73.4" class="st0" width="513.8" height="148.2"/>
<rect x="76.4" y="73.4" class="st1" width="513.8" height="148.2"/>
<polygon points="184.7,73.4 130.5,127.6 76.4,73.4 "/>
<rect x="115.9" y="171.2" transform="matrix(0.7071 -0.7071 0.7071 0.7071 -83.4352 152.5516)" class="st4" width="53" height="11.7"/>
<polygon class="st5" points="179.5,131.7 119.6,191.6 127.8,199.9 149.6,221.7 76.4,221.7 76.4,198.9 189.7,85.6 225.6,85.6 "/>
<polygon class="st4" points="590.2,73.4 590.2,85.6 189.7,85.6 76.4,198.9 76.4,189.2 76.6,189 76.4,73.4 130.5,127.6 184.7,73.4 
	"/>
</svg>
